<svg xmlns="http://www.w3.org/2000/svg" viewBox="0 0 100 100">
  <rect width="100" height="100" rx="20" fill="#1e3a5f"/>
  <polygon points="45.29,28.51 43.57,20.70 56.43,20.70 54.71,28.51 61.86,31.47 66.17,24.73 75.27,33.83 68.53,38.14 71.49,45.29 79.30,43.57 79.30,56.43 71.49,54.71 68.53,61.86 75.27,66.17 66.17,75.27 61.86,68.53 54.71,71.49 56.43,79.30 43.57,79.30 45.29,71.49 38.14,68.53 33.83,75.27 24.73,66.17 31.47,61.86 28.51,54.71 20.70,56.43 20.70,43.57 28.51,45.29 31.47,38.14 24.73,33.83 33.83,24.73 38.14,31.47" fill="#c9a24b"/>
  <circle cx="50" cy="50" r="12" fill="#1e3a5f"/>
</svg>
